<svg xmlns="http://www.w3.org/2000/svg" width="167.18" height="65.297" viewBox="0 0 167.18 65.297">
  <g id="Group_42569" data-name="Group 42569" transform="translate(5077.09 4708.491)">
    <path id="Polygon_1" data-name="Polygon 1" d="M53.115,0a7,7,0,0,1,6.046,3.473L74.123,29.122a7,7,0,0,1,0,7.054L59.161,61.824A7,7,0,0,1,53.115,65.3H23.066a7,7,0,0,1-6.046-3.473L2.057,36.176a7,7,0,0,1,0-7.054L17.019,3.473A7,7,0,0,1,23.066,0Z" transform="translate(-5077.09 -4708.491)" fill="#3976cf"/>
    <path id="Polygon_2" data-name="Polygon 2" d="M41.614,0a7,7,0,0,1,6.057,3.491L58.833,22.759a7,7,0,0,1,0,7.018L47.672,49.044a7,7,0,0,1-6.057,3.491H19.251a7,7,0,0,1-6.057-3.491L2.033,29.776a7,7,0,0,1,0-7.018L13.194,3.491A7,7,0,0,1,19.251,0Z" transform="translate(-5069.433 -4702.109)" fill="#fcf4f0"/>
    <g id="Group_4" data-name="Group 4" transform="translate(-5060.896 -4685.795)">
      <path id="Path_11" data-name="Path 11" d="M56.657,19.945c-10.2-4.89-14.081-1.825-7.176,2.674a61.831,61.831,0,0,1,9.058-1.758c-.458-.266-1.336-.655-1.882-.917Zm-6.372,4.745ZM39.833,33.1a56.986,56.986,0,0,1-10.984,5l0,.028a76.784,76.784,0,0,0,12.7-4.835l.088-.006.027-.061a77.706,77.706,0,0,0,11.047-6.355l-1.062-1c-1.372-1.244-1.394-1.1.246-.811,4.648.836,7.6,1.366,7.6,1.424.066.115-.983,3.241-4.127,8.765-.739,1.4-.562,1.389-.747-.191l-.367-2.128a46.935,46.935,0,0,1-9.448,4.991,38.348,38.348,0,0,0,7.732-2.709C50.5,40.381,53.658,41.9,59.33,34.9a35.766,35.766,0,0,0,4.352-6.508c14.337-5.555,11.334-11.825-8.077-6.847A74.15,74.15,0,0,0,40.428,26.88c-11.967-9.76-4.947,5.4-.6,6.223Z" transform="translate(-28.849 -17.452)" fill="#3976cf" fill-rule="evenodd"/>
    </g>
    <text id="Logohere" transform="translate(-4999.91 -4669.342)" fill="#fff" font-size="28" font-family="RageItalic, Rage"><tspan x="0" y="0">Logohere</tspan></text>
  </g>
</svg>
